<svg id="Layer_1" data-name="Layer 1" xmlns="http://www.w3.org/2000/svg" xmlns:xlink="http://www.w3.org/1999/xlink" viewBox="0 0 236.56 372.42"><defs><style>.cls-1{fill:url(#linear-gradient);}.cls-2{fill:url(#linear-gradient-2);}.cls-3{fill:url(#linear-gradient-3);}.cls-4{fill:url(#linear-gradient-4);}.cls-5{fill:url(#linear-gradient-5);}.cls-6{fill:url(#linear-gradient-6);}.cls-7{fill:url(#linear-gradient-7);}.cls-8{fill:url(#linear-gradient-8);}.cls-9{fill:url(#linear-gradient-9);}.cls-10{fill:url(#linear-gradient-10);}.cls-11{fill:url(#linear-gradient-11);}.cls-12{fill:url(#linear-gradient-12);}.cls-13{fill:url(#linear-gradient-13);}.cls-14{fill:url(#linear-gradient-14);}.cls-15{fill:url(#linear-gradient-15);}.cls-16{fill:url(#linear-gradient-16);}.cls-17{fill:url(#linear-gradient-17);}.cls-18{fill:url(#linear-gradient-18);}.cls-19{fill:url(#linear-gradient-19);}.cls-20{fill:url(#linear-gradient-20);}.cls-21{fill:url(#linear-gradient-21);}.cls-22{fill:url(#linear-gradient-22);}.cls-23{fill:url(#linear-gradient-23);}.cls-24{fill:url(#linear-gradient-24);}.cls-25{fill:url(#linear-gradient-25);}.cls-26{fill:url(#linear-gradient-26);}.cls-27{fill:url(#linear-gradient-27);}.cls-28{fill:url(#linear-gradient-28);}.cls-29{fill:url(#linear-gradient-29);}.cls-30{fill:url(#linear-gradient-30);}.cls-31{fill:url(#linear-gradient-31);}.cls-32{fill:url(#linear-gradient-32);}.cls-33{fill:url(#linear-gradient-33);}.cls-34{fill:url(#linear-gradient-34);}.cls-35{fill:url(#linear-gradient-35);}.cls-36{fill:url(#linear-gradient-36);}.cls-37{fill:#fff;}</style><linearGradient id="linear-gradient" x1="31.72" y1="100" x2="88.28" y2="100" gradientTransform="translate(90.25 -12.63) rotate(46)" gradientUnits="userSpaceOnUse"><stop offset="0" stop-color="#fff"/><stop offset="0" stop-color="#f8fdfb"/><stop offset="0.04" stop-color="#d4f4e9" stop-opacity="0.83"/><stop offset="0.08" stop-color="#b2ecd8" stop-opacity="0.68"/><stop offset="0.13" stop-color="#94e4c9" stop-opacity="0.54"/><stop offset="0.19" stop-color="#79ddbc" stop-opacity="0.42"/><stop offset="0.25" stop-color="#63d8b1" stop-opacity="0.32"/><stop offset="0.31" stop-color="#51d4a8" stop-opacity="0.24"/><stop offset="0.39" stop-color="#44d0a1" stop-opacity="0.18"/><stop offset="0.49" stop-color="#3ace9c" stop-opacity="0.13"/><stop offset="0.62" stop-color="#35cc9a" stop-opacity="0.11"/><stop offset="1" stop-color="#3c9" stop-opacity="0.1"/></linearGradient><linearGradient id="linear-gradient-2" x1="75.86" y1="90" x2="104.14" y2="90" gradientTransform="translate(92.22 -37.26) rotate(46)" xlink:href="#linear-gradient"/><linearGradient id="linear-gradient-3" x1="95.86" y1="110" x2="124.14" y2="110" gradientTransform="translate(112.71 -45.54) rotate(46)" xlink:href="#linear-gradient"/><linearGradient id="linear-gradient-4" x1="115.86" y1="70" x2="144.14" y2="70" gradientTransform="translate(90.05 -72.14) rotate(46)" xlink:href="#linear-gradient"/><linearGradient id="linear-gradient-5" x1="71.72" y1="160" x2="128.28" y2="160" gradientTransform="translate(145.63 -23.08) rotate(46)" xlink:href="#linear-gradient"/><linearGradient id="linear-gradient-6" x1="75.86" y1="190" x2="104.14" y2="190" gradientTransform="translate(164.16 -6.73) rotate(46)" xlink:href="#linear-gradient"/><linearGradient id="linear-gradient-7" x1="115.86" y1="170" x2="144.14" y2="170" gradientTransform="translate(161.98 -41.61) rotate(46)" xlink:href="#linear-gradient"/><linearGradient id="linear-gradient-8" x1="55.86" y1="150" x2="84.14" y2="150" gradientTransform="translate(129.27 -4.55) rotate(46)" xlink:href="#linear-gradient"/><linearGradient id="linear-gradient-9" x1="35.86" y1="170" x2="64.14" y2="170" gradientTransform="translate(137.55 15.94) rotate(46)" xlink:href="#linear-gradient"/><linearGradient id="linear-gradient-10" x1="55.86" y1="210" x2="84.14" y2="210" gradientTransform="translate(172.44 13.77) rotate(46)" xlink:href="#linear-gradient"/><linearGradient id="linear-gradient-11" x1="147.58" y1="210" x2="232.42" y2="210" gradientTransform="translate(209.08 -72.55) rotate(46)" xlink:href="#linear-gradient"/><linearGradient id="linear-gradient-12" x1="175.86" y1="250" x2="204.14" y2="250" gradientTransform="translate(237.85 -60.34) rotate(46)" xlink:href="#linear-gradient"/><linearGradient id="linear-gradient-13" x1="115.86" y1="250" x2="144.14" y2="250" gradientTransform="translate(219.53 -17.18) rotate(46)" xlink:href="#linear-gradient"/><linearGradient id="linear-gradient-14" x1="135.86" y1="290" x2="164.14" y2="290" gradientTransform="translate(254.41 -19.35) rotate(46)" xlink:href="#linear-gradient"/><linearGradient id="linear-gradient-15" x1="55.86" y1="310" x2="84.14" y2="310" gradientTransform="translate(244.37 44.3) rotate(46)" xlink:href="#linear-gradient"/><linearGradient id="linear-gradient-16" x1="155.86" y1="350" x2="184.14" y2="350" gradientTransform="translate(303.68 -15.42) rotate(46)" xlink:href="#linear-gradient"/><linearGradient id="linear-gradient-17" x1="15.86" y1="250" x2="44.14" y2="250" gradientTransform="translate(189 54.76) rotate(46)" xlink:href="#linear-gradient"/><linearGradient id="linear-gradient-18" x1="151.72" y1="60" x2="208.28" y2="60" gradientTransform="translate(98.12 -111.16) rotate(46)" xlink:href="#linear-gradient"/><linearGradient id="linear-gradient-19" x1="195.86" y1="30" x2="224.14" y2="30" gradientTransform="translate(85.7 -141.9) rotate(46)" xlink:href="#linear-gradient"/><linearGradient id="linear-gradient-20" x1="35.86" y1="30" x2="64.14" y2="30" gradientTransform="translate(36.85 -26.81) rotate(46)" xlink:href="#linear-gradient"/><linearGradient id="linear-gradient-21" x1="11.72" y1="360" x2="68.28" y2="360" gradientTransform="translate(271.18 81.15) rotate(46)" xlink:href="#linear-gradient"/><linearGradient id="linear-gradient-22" x1="55.86" y1="350" x2="84.14" y2="350" gradientTransform="translate(273.14 56.52) rotate(46)" xlink:href="#linear-gradient"/><linearGradient id="linear-gradient-23" x1="95.86" y1="350" x2="124.14" y2="350" gradientTransform="translate(285.36 27.74) rotate(46)" xlink:href="#linear-gradient"/><linearGradient id="linear-gradient-24" x1="115.86" y1="370" x2="144.14" y2="370" gradientTransform="translate(305.85 19.46) rotate(46)" xlink:href="#linear-gradient"/><linearGradient id="linear-gradient-25" x1="171.72" y1="140" x2="228.28" y2="140" gradientTransform="translate(161.78 -101.12) rotate(46)" xlink:href="#linear-gradient"/><linearGradient id="linear-gradient-26" x1="155.86" y1="130" x2="184.14" y2="130" gradientTransform="translate(145.42 -82.59) rotate(46)" xlink:href="#linear-gradient"/><linearGradient id="linear-gradient-27" x1="175.86" y1="110" x2="204.14" y2="110" gradientTransform="translate(137.14 -103.09) rotate(46)" xlink:href="#linear-gradient"/><linearGradient id="linear-gradient-28" x1="215.86" y1="130" x2="244.14" y2="130" gradientTransform="translate(163.74 -125.75) rotate(46)" xlink:href="#linear-gradient"/><linearGradient id="linear-gradient-29" x1="175.86" y1="170" x2="204.14" y2="170" gradientTransform="translate(180.3 -84.77) rotate(46)" xlink:href="#linear-gradient"/><linearGradient id="linear-gradient-30" x1="195.86" y1="170" x2="224.14" y2="170" gradientTransform="translate(186.41 -99.15) rotate(46)" xlink:href="#linear-gradient"/><linearGradient id="linear-gradient-31" x1="191.72" y1="300" x2="248.28" y2="300" gradientTransform="translate(282.98 -66.65) rotate(46)" xlink:href="#linear-gradient"/><linearGradient id="linear-gradient-32" x1="15.86" y1="290" x2="44.14" y2="290" gradientTransform="translate(217.77 66.97) rotate(46)" xlink:href="#linear-gradient"/><linearGradient id="linear-gradient-33" x1="15.86" y1="210" x2="44.14" y2="210" gradientTransform="translate(160.22 42.54) rotate(46)" xlink:href="#linear-gradient"/><linearGradient id="linear-gradient-34" x1="75.86" y1="30" x2="104.14" y2="30" gradientTransform="translate(49.06 -55.58) rotate(46)" xlink:href="#linear-gradient"/><linearGradient id="linear-gradient-35" x1="75.86" y1="270" x2="104.14" y2="270" gradientTransform="translate(221.7 17.7) rotate(46)" xlink:href="#linear-gradient"/><linearGradient id="linear-gradient-36" x1="216.57" y1="370" x2="243.43" y2="370" gradientTransform="translate(336.38 -52.47) rotate(46)" xlink:href="#linear-gradient"/></defs><title>empty-state</title><rect class="cls-1" x="40" y="80" width="40" height="40" transform="translate(-65.33 57.83) rotate(-46)"/><rect class="cls-2" x="80" y="80" width="20" height="20" transform="translate(-48.98 76.36) rotate(-46)"/><rect class="cls-3" x="100" y="100" width="20" height="20" transform="translate(-57.26 96.85) rotate(-46)"/><rect class="cls-4" x="120" y="60" width="20" height="20" transform="translate(-22.38 99.03) rotate(-46)"/><rect class="cls-5" x="80" y="140" width="40" height="40" transform="translate(-96.28 104.93) rotate(-46)"/><rect class="cls-6" x="80" y="180" width="20" height="20" transform="translate(-120.91 106.9) rotate(-46)"/><rect class="cls-7" x="120" y="160" width="20" height="20" transform="translate(-94.31 129.56) rotate(-46)"/><rect class="cls-8" x="60" y="140" width="20" height="20" transform="translate(-98.25 80.3) rotate(-46)"/><rect class="cls-9" x="40" y="160" width="20" height="20" transform="translate(-118.74 72.02) rotate(-46)"/><rect class="cls-10" x="60" y="200" width="20" height="20" transform="translate(-141.41 98.62) rotate(-46)"/><rect class="cls-11" x="160" y="180" width="60" height="60" transform="translate(-104.77 184.94) rotate(-46)"/><rect class="cls-12" x="180" y="240" width="20" height="20" transform="translate(-133.54 197.15) rotate(-46)"/><rect class="cls-13" x="120" y="240" width="20" height="20" transform="translate(-151.86 153.99) rotate(-46)"/><rect class="cls-14" x="140" y="280" width="20" height="20" transform="translate(-174.53 180.59) rotate(-46)"/><rect class="cls-15" x="60" y="300" width="20" height="20" transform="translate(-213.34 129.15) rotate(-46)"/><rect class="cls-16" x="160" y="340" width="20" height="20" transform="translate(-211.58 213.3) rotate(-46)"/><rect class="cls-17" x="20" y="240" width="20" height="20" transform="translate(-182.39 82.06) rotate(-46)"/><rect class="cls-18" x="160" y="40" width="40" height="40" transform="translate(0.08 131.94) rotate(-46)"/><rect class="cls-19" x="200" y="20" width="20" height="20" transform="translate(30.82 144.36) rotate(-46)"/><rect class="cls-20" x="40" y="20" width="20" height="20" transform="translate(-18.03 29.27) rotate(-46)"/><rect class="cls-21" x="20" y="340" width="40" height="40" transform="translate(-258.47 122.84) rotate(-46)"/><rect class="cls-22" x="60" y="340" width="20" height="20" transform="translate(-242.12 141.36) rotate(-46)"/><rect class="cls-23" x="100" y="340" width="20" height="20" transform="translate(-229.9 170.14) rotate(-46)"/><rect class="cls-24" x="120" y="360" width="20" height="20" transform="translate(-238.18 190.63) rotate(-46)"/><rect class="cls-25" x="180" y="120" width="40" height="40" transform="translate(-51.36 170.76) rotate(-46)"/><rect class="cls-26" x="160" y="120" width="20" height="20" transform="translate(-53.33 146.12) rotate(-46)"/><rect class="cls-27" x="180" y="100" width="20" height="20" transform="translate(-32.83 154.4) rotate(-46)"/><rect class="cls-28" x="220" y="120" width="20" height="20" transform="translate(-35.01 189.28) rotate(-46)"/><rect class="cls-29" x="180" y="160" width="20" height="20" transform="translate(-75.99 172.72) rotate(-46)"/><rect class="cls-30" x="200" y="160" width="20" height="20" transform="translate(-69.89 187.11) rotate(-46)"/><rect class="cls-31" x="200" y="280" width="40" height="40" transform="translate(-160.35 234) rotate(-46)"/><rect class="cls-32" x="20" y="280" width="20" height="20" transform="translate(-211.17 94.27) rotate(-46)"/><rect class="cls-33" x="20" y="200" width="20" height="20" transform="translate(-153.62 69.84) rotate(-46)"/><rect class="cls-34" x="80" y="20" width="20" height="20" transform="translate(-5.82 58.04) rotate(-46)"/><rect class="cls-35" x="80" y="260" width="20" height="20" transform="translate(-178.46 131.32) rotate(-46)"/><rect class="cls-36" x="220.5" y="360.5" width="19" height="19" transform="translate(-207.65 262.56) rotate(-46)"/><path class="cls-37" d="M229.78,357.27l12.95,12.5-12.5,12.95-12.95-12.5,12.5-12.95m0-1.41-13.89,14.39,14.39,13.89,13.89-14.39-14.39-13.89Z" transform="translate(-11.72 -15.86)"/></svg>