<svg id="Layer_1" data-name="Layer 1" xmlns="http://www.w3.org/2000/svg" viewBox="0 0 384.99 115.9"><title>retrosmall</title><path class="cls-1" d="M358.71,53.22c-22.43-2.72-43.7,20.58-47.53,52.06s11.26,59.2,33.68,61.92,43.7-20.58,47.53-52.06S381.14,55.94,358.71,53.22Zm-1.49,57.21c-.57,4.71-3.58,8.21-6.72,7.83s-5.22-4.51-4.65-9.21,3.58-8.21,6.72-7.83S357.8,105.72,357.23,110.43Z" transform="translate(-8 -51.51)"/><path class="cls-1" d="M300,126.89a4.17,4.17,0,0,1,1.39-6.28c15.87-7.85,25.29-49,13.61-59.88-16.69-15.57-84.54-5.56-84.54-5.56V163.3a3.11,3.11,0,0,0,3.11,3.11h29.15c7.66,0,4.64-21.34,2.11-34.27a1.4,1.4,0,0,1,2.61-.93l18.12,33.57a3.11,3.11,0,0,0,2.74,1.63h31.16C329.43,166.41,309,138.5,300,126.89Zm-21.64-36c-1.72,4.29-5.43,6.84-8.29,5.7S266.3,91,268,86.7s5.43-6.84,8.29-5.7S280.1,86.55,278.38,90.85Z" transform="translate(-8 -51.51)"/><path class="cls-1" d="M143,84.84h24.27a4,4,0,0,1,4,4v74.53a3,3,0,0,0,3,3h33.62a3,3,0,0,0,3-3V88.88a4,4,0,0,1,4-4h19.57a4,4,0,0,0,4-3.34c1.11-6.39,3-20-.64-23.63-12.4-12.4-78.1-3.3-91.64-.66a4,4,0,0,0-3.26,4Z" transform="translate(-8 -51.51)"/><path class="cls-1" d="M123.66,90.28V99.6a4,4,0,0,0,4.58,4c4.14-.57,9.84-1,11.6.78,3.34,3.34,3.67,15.91,0,18.88-1.93,1.56-7.57,1.21-11.65.7a4,4,0,0,0-4.53,4v6.61a4,4,0,0,0,4.68,4c6.78-1.11,18.91-2.52,22.29.86,4.77,4.77,6.74,27,0,27H90.5V58.55s51.94-9.53,61.47,0c4.77,4.77,5.24,22.73,0,27-3.93,3.18-16.69,1.82-23.66.78A4,4,0,0,0,123.66,90.28Z" transform="translate(-8 -51.51)"/><path class="cls-1" d="M77.54,126.89a4.17,4.17,0,0,1,1.39-6.28c15.87-7.85,25.29-49,13.61-59.88C75.86,45.16,8,55.17,8,55.17V163.3a3.11,3.11,0,0,0,3.11,3.11H40.26c7.66,0,4.64-21.34,2.11-34.27a1.4,1.4,0,0,1,2.61-.93l18.12,33.57a3.11,3.11,0,0,0,2.74,1.63H97C106.94,166.41,86.48,138.5,77.54,126.89Zm-21.64-36c-1.72,4.29-5.43,6.84-8.29,5.7S43.82,91,45.54,86.7,51,79.86,53.83,81,57.62,86.55,55.9,90.85Z" transform="translate(-8 -51.51)"/></svg>
